<?xml version="1.0" encoding="UTF-8"?>
<svg version="1.1" xmlns="http://www.w3.org/2000/svg" width="500" height="500">
<path d="M0 0 C2.87060547 1.36010742 2.87060547 1.36010742 5.8671875 3.10546875 C6.98754395 3.75201416 8.10790039 4.39855957 9.26220703 5.06469727 C10.46658132 5.77211099 11.67084281 6.47971678 12.875 7.1875 C14.13218264 7.91739043 15.38983941 8.64646475 16.64794922 9.37475586 C19.83716971 11.22383249 23.02006445 13.08349096 26.20092773 14.94689941 C28.8863833 16.51885118 31.57610509 18.08345251 34.265625 19.6484375 C38.18475378 21.93070793 42.10100792 24.21781329 46.015625 26.5078125 C55.52026788 32.06210776 65.06440504 37.54816802 74.60351562 43.04296875 C80.02446492 46.16648295 85.44336866 49.29354116 90.86236572 52.42044067 C93.65034759 54.02913682 96.43846015 55.63760642 99.2265625 57.24609375 C100.81770833 58.1640625 102.40885417 59.08203125 104 60 C104 60.66 104 61.32 104 62 C103.33170166 62.3717334 102.66340332 62.7434668 101.97485352 63.12646484 C89.32771305 70.1677226 76.72749153 77.26421004 64.27929688 84.65136719 C49.47526421 93.41073699 34.57057261 101.99555739 19.6159668 110.49462891 C13.65617865 113.88722368 7.74502174 117.32884942 1.92138672 120.95117188 C0 122 0 122 -2 122 C-2 122.66 -2 123.32 -2 124 C-1.28553711 124.27005859 -0.57107422 124.54011719 0.16503906 124.81835938 C3.02863414 126.011935 5.65468893 127.38826523 8.359375 128.90625 C9.89549438 129.76657837 9.89549438 129.76657837 11.46264648 130.64428711 C12.54747314 131.25667236 13.6322998 131.86905762 14.75 132.5 C15.87672119 133.13365479 17.00344238 133.76730957 18.16430664 134.42016602 C24.95661565 138.25081675 31.7122246 142.13574168 38.41967773 146.11279297 C55.46661908 156.21753185 72.70836145 165.99699368 89.92504883 175.80908203 C91.03904053 176.44442871 92.15303223 177.07977539 93.30078125 177.734375 C94.28216064 178.29350586 95.26354004 178.85263672 96.2746582 179.42871094 C97.174021 179.94723633 98.07338379 180.46576172 99 181 C100.30321339 181.63196273 100.30321339 181.63196273 101.63275433 182.27669239 C104 184 104 184 104.61523914 186.33693218 C104.61063018 187.26333413 104.60602121 188.18973608 104.60127258 189.14421082 C104.6081459 190.20851822 104.61501923 191.27282562 104.62210083 192.36938477 C104.60412445 193.53679199 104.58614807 194.70419922 104.56762695 195.90698242 C104.56872215 197.75106438 104.56872215 197.75106438 104.56983948 199.63240051 C104.56695031 203.00461485 104.54185886 206.37530332 104.50696969 209.74724746 C104.47573669 213.27060571 104.47277791 216.79398378 104.46684265 220.31745911 C104.45129505 226.98992387 104.41025474 233.66197956 104.3600952 240.3342641 C104.30422979 247.93026189 104.27672238 255.52627911 104.25161803 263.12243116 C104.19933925 278.74852444 104.1113798 294.3742095 104 310 C103.21463867 310.44802979 102.42927734 310.89605957 101.62011719 311.35766602 C98.64524653 313.05512564 95.67067451 314.75310642 92.69628906 316.45141602 C91.42036264 317.17980803 90.14432491 317.90800511 88.86816406 318.63598633 C80.55259401 323.37978988 72.26028769 328.16030512 64 333 C54.19571278 338.7378859 44.34659124 344.39353795 34.47021484 350.00610352 C28.64989688 353.31756614 22.85545167 356.66397058 17.1015625 360.08984375 C16.00972656 360.73759766 14.91789062 361.38535156 13.79296875 362.05273438 C11.73608224 363.27646772 9.68370056 364.50781672 7.63671875 365.74804688 C6.71761719 366.29396484 5.79851562 366.83988281 4.8515625 367.40234375 C4.05572754 367.88179443 3.25989258 368.36124512 2.43994141 368.85522461 C-1.29026151 370.60536684 -4.404592 371.56431748 -8.37988281 370.15820312 C-9.14655273 369.70380859 -9.91322266 369.24941406 -10.703125 368.78125 C-11.58734131 368.26892822 -12.47155762 367.75660645 -13.38256836 367.22875977 C-14.80194702 366.37302368 -14.80194702 366.37302368 -16.25 365.5 C-17.25361572 364.913396 -18.25723145 364.32679199 -19.29125977 363.72241211 C-21.43573634 362.46833901 -23.57634349 361.20762977 -25.71337891 359.94091797 C-30.01584736 357.40009014 -34.34967834 354.91575305 -38.68408203 352.42993164 C-49.08053933 346.46246189 -59.4311607 340.41663271 -69.77832031 334.36425781 C-79.0915359 328.92667081 -88.45421911 323.57682547 -97.82568359 318.24047852 C-98.9492627 317.60037842 -100.0728418 316.96027832 -101.23046875 316.30078125 C-102.72163208 315.45253784 -102.72163208 315.45253784 -104.24291992 314.5871582 C-105.15275635 314.063396 -106.06259277 313.53963379 -107 313 C-107.94399658 312.47817139 -108.88799316 311.95634277 -109.8605957 311.41870117 C-110.56659912 310.95052979 -111.27260254 310.4823584 -112 310 C-112 309.34 -112 308.68 -112 308 C-111.33170166 307.6282666 -110.66340332 307.2565332 -109.97485352 306.87353516 C-97.33520024 299.83644588 -84.74214092 292.74453309 -72.30126953 285.36181641 C-58.64105951 277.27814873 -44.90127184 269.34038103 -31.05932617 261.57226562 C-24.74185568 258.0168597 -18.49498808 254.36454386 -12.33764648 250.5378418 C-8.20814374 248 -8.20814374 248 -6 248 C-6 247.34 -6 246.68 -6 246 C-7.02673828 245.62101562 -7.02673828 245.62101562 -8.07421875 245.234375 C-11.46413223 243.80418453 -14.62201454 242.06939814 -17.8125 240.25 C-18.49626709 239.86295898 -19.18003418 239.47591797 -19.88452148 239.07714844 C-27.18109261 234.92964065 -34.41696328 230.67751649 -41.65942383 226.43652344 C-48.57221034 222.39565066 -55.52028243 218.42398953 -62.5 214.5 C-71.52095373 209.42765636 -80.47930986 204.25552499 -89.40625 199.01953125 C-96.90698515 194.62218582 -104.44910266 190.31479848 -112 186 C-112 144.42 -112 102.84 -112 60 C-102.76 54.72 -93.52 49.44 -84 44 C-75.0601996 38.78518757 -75.0601996 38.78518757 -66.125 33.5625 C-58.85710016 29.32289176 -51.54600917 25.1594894 -44.23516846 20.99459839 C-34.54877463 15.47507418 -24.90411984 9.88834961 -15.28515625 4.25195312 C-14.35316406 3.70603516 -13.42117187 3.16011719 -12.4609375 2.59765625 C-11.64415527 2.11820557 -10.82737305 1.63875488 -9.98583984 1.14477539 C-6.09507312 -1.09813156 -4.45369999 -1.039465 0 0 Z " fill="#FEC006" transform="translate(254,65)"/>
<path d="M0 0 C6.74832487 1.12472081 6.74832487 1.12472081 9.8984375 3.01171875 C10.96880249 3.64255371 10.96880249 3.64255371 12.06079102 4.28613281 C12.82447998 4.74858398 13.58816895 5.21103516 14.375 5.6875 C16.0793616 6.69672519 17.78379191 7.70583432 19.48828125 8.71484375 C20.38627441 9.25093262 21.28426758 9.78702148 22.20947266 10.33935547 C26.97489845 13.17526328 31.77044357 15.95941507 36.5625 18.75 C37.56812988 19.33692627 38.57375977 19.92385254 39.60986328 20.52856445 C57.65586178 31.05942736 75.77403 41.46450787 93.92675781 51.81005859 C95.59689941 52.76259521 95.59689941 52.76259521 97.30078125 53.734375 C98.28216064 54.29350586 99.26354004 54.85263672 100.2746582 55.42871094 C101.174021 55.94723633 102.07338379 56.46576172 103 57 C104.30321339 57.63196273 104.30321339 57.63196273 105.63275433 58.27669239 C108 60 108 60 108.61523914 62.33693218 C108.61063018 63.26333413 108.60602121 64.18973608 108.60127258 65.14421082 C108.6081459 66.20851822 108.61501923 67.27282562 108.62210083 68.36938477 C108.60412445 69.53679199 108.58614807 70.70419922 108.56762695 71.90698242 C108.56872215 73.75106438 108.56872215 73.75106438 108.56983948 75.63240051 C108.56695031 79.00461485 108.54185886 82.37530332 108.50696969 85.74724746 C108.47573669 89.27060571 108.47277791 92.79398378 108.46684265 96.31745911 C108.45129505 102.98992387 108.41025474 109.66197956 108.3600952 116.3342641 C108.30422979 123.93026189 108.27672238 131.52627911 108.25161803 139.12243116 C108.19933925 154.74852444 108.1113798 170.3742095 108 186 C107.21463867 186.44802979 106.42927734 186.89605957 105.62011719 187.35766602 C102.64524653 189.05512564 99.67067451 190.75310642 96.69628906 192.45141602 C95.42036264 193.17980803 94.14432491 193.90800511 92.86816406 194.63598633 C84.55259401 199.37978988 76.26028769 204.16030512 68 209 C58.19571278 214.7378859 48.34659124 220.39353795 38.47021484 226.00610352 C32.64989688 229.31756614 26.85545167 232.66397058 21.1015625 236.08984375 C20.00972656 236.73759766 18.91789062 237.38535156 17.79296875 238.05273438 C15.73608224 239.27646772 13.68370056 240.50781672 11.63671875 241.74804688 C10.71761719 242.29396484 9.79851562 242.83988281 8.8515625 243.40234375 C8.05572754 243.88179443 7.25989258 244.36124512 6.43994141 244.85522461 C2.70973849 246.60536684 -0.404592 247.56431748 -4.37988281 246.15820312 C-5.14655273 245.70380859 -5.91322266 245.24941406 -6.703125 244.78125 C-7.58734131 244.26892822 -8.47155762 243.75660645 -9.38256836 243.22875977 C-10.80194702 242.37302368 -10.80194702 242.37302368 -12.25 241.5 C-13.25361572 240.913396 -14.25723145 240.32679199 -15.29125977 239.72241211 C-17.43573634 238.46833901 -19.57634349 237.20762977 -21.71337891 235.94091797 C-26.01584736 233.40009014 -30.34967834 230.91575305 -34.68408203 228.42993164 C-45.08053933 222.46246189 -55.4311607 216.41663271 -65.77832031 210.36425781 C-75.0915359 204.92667081 -84.45421911 199.57682547 -93.82568359 194.24047852 C-94.9492627 193.60037842 -96.0728418 192.96027832 -97.23046875 192.30078125 C-98.72163208 191.45253784 -98.72163208 191.45253784 -100.24291992 190.5871582 C-101.15275635 190.063396 -102.06259277 189.53963379 -103 189 C-103.94399658 188.47817139 -104.88799316 187.95634277 -105.8605957 187.41870117 C-106.91960083 186.71644409 -106.91960083 186.71644409 -108 186 C-108 185.34 -108 184.68 -108 184 C-106.99755249 183.4423999 -106.99755249 183.4423999 -105.97485352 182.87353516 C-93.33520024 175.83644588 -80.74214092 168.74453309 -68.30126953 161.36181641 C-54.64012919 153.2775982 -40.8980085 145.34221849 -27.05712891 137.57006836 C-20.77663244 134.03379232 -14.56186259 130.40704901 -8.42553711 126.62573242 C-5.95270905 125.11162987 -3.76587956 123.92195985 -1 123 C-0.67 82.41 -0.34 41.82 0 0 Z " fill="#429423" transform="translate(250,189)"/>
<path d="M0 0 C2.47167969 1.16064453 2.47167969 1.16064453 4.921875 2.6328125 C6.31539185 3.45906128 6.31539185 3.45906128 7.73706055 4.30200195 C8.73133057 4.90359131 9.72560059 5.50518066 10.75 6.125 C12.9174894 7.41356707 15.08547486 8.70130002 17.25390625 9.98828125 C18.37039551 10.65424316 19.48688477 11.32020508 20.63720703 12.00634766 C25.95741884 15.16046771 31.32323867 18.23411279 36.6875 21.3125 C46.0247689 26.68737356 55.33367887 32.10875839 64.625 37.5625 C65.23504883 37.92056732 65.84509766 38.27863464 66.47363281 38.64755249 C68.90582282 40.07523159 71.33794733 41.50302222 73.76998901 42.93095398 C87.71006585 51.11441973 101.67891464 59.24688679 115.6875 67.3125 C125.75472279 73.10882583 135.78619058 78.96373028 145.80349731 84.84567261 C156.9738063 91.40450284 168.17298211 97.91178015 179.39550781 104.38085938 C181.0424464 105.33038659 182.68909032 106.28042507 184.33544922 107.23095703 C185.85465081 108.10806938 187.3744256 108.98419041 188.89501953 109.85888672 C190.33689279 110.69155462 191.76479407 111.54886908 193.17796993 112.4293623 C196.07269544 114.12820788 196.07269544 114.12820788 199.69169712 115.41042805 C204.08746266 117.24296144 207.95227387 119.25424001 211 123 C213.93833431 130.44360465 213.14425869 139.07572303 213.08374023 146.93237305 C213.11882128 149.39380639 213.16013516 151.85515761 213.2071991 154.31639099 C213.30285987 160.29869904 213.32762959 166.27733921 213.31523465 172.26008358 C213.30594 177.12655599 213.32269705 181.99227108 213.35768318 186.8586216 C213.36759551 188.26365321 213.37750627 189.66868483 213.38741547 191.07371646 C213.39482598 192.12292724 213.39482598 192.12292724 213.4023862 193.1933342 C213.49162281 206.40701518 213.48212171 219.61928751 213.44332368 232.83311883 C213.41111252 244.89812741 213.50724155 256.95813544 213.66369974 269.02204325 C213.82339972 281.4326376 213.8932712 293.84085317 213.8681789 306.25248939 C213.85574421 313.21193901 213.87839857 320.16691297 213.99600029 327.125494 C214.10569768 333.67557808 214.08886223 340.21717561 213.98898506 346.76796913 C213.97171325 349.16325814 213.9949253 351.55925451 214.06280518 353.9536438 C214.44991465 368.6458016 214.44991465 368.6458016 211 375 C205.12164351 380.83422881 197.65013239 384.19232735 190.16913617 387.51869166 C184.94411911 389.96095382 180.05601941 392.95649239 175.125 395.9375 C165.5097552 401.55172328 155.86766069 407.11857 146.21923828 412.67553711 C139.64163257 416.46688526 133.08448483 420.28981274 126.54907227 424.15332031 C120.05944675 427.98192455 113.52954121 431.73998916 107 435.5 C97.80841756 440.79436195 88.64358389 446.12946802 79.50878906 451.52099609 C63.55206786 460.92794598 47.57858888 470.30746775 31.50317383 479.51049805 C26.0469418 482.63887249 20.6287777 485.8155305 15.25390625 489.08203125 C14.16182861 489.73921143 13.06975098 490.3963916 11.94458008 491.07348633 C9.86698687 492.32639332 7.79728105 493.59250611 5.73706055 494.8737793 C4.80804932 495.43105713 3.87903809 495.98833496 2.921875 496.5625 C2.11331055 497.05878906 1.30474609 497.55507813 0.47167969 498.06640625 C-2.78868956 499.29790092 -4.66087096 498.90923875 -8 498 C-10.47167969 496.83935547 -10.47167969 496.83935547 -12.921875 495.3671875 C-13.85088623 494.81635498 -14.77989746 494.26552246 -15.73706055 493.69799805 C-16.73133057 493.09640869 -17.72560059 492.49481934 -18.75 491.875 C-20.9174894 490.58643293 -23.08547486 489.29869998 -25.25390625 488.01171875 C-26.92864014 487.01277588 -26.92864014 487.01277588 -28.63720703 485.99365234 C-33.95741884 482.83953229 -39.32323867 479.76588721 -44.6875 476.6875 C-54.0247689 471.31262644 -63.33367887 465.89124161 -72.625 460.4375 C-73.54007324 459.90039902 -73.54007324 459.90039902 -74.47363281 459.35244751 C-76.90582282 457.92476841 -79.33794733 456.49697778 -81.76998901 455.06904602 C-95.71006585 446.88558027 -109.67891464 438.75311321 -123.6875 430.6875 C-133.75641698 424.89019872 -143.78968991 419.03449615 -153.80853271 413.15130615 C-161.13142859 408.85124618 -168.45902899 404.56016212 -175.8125 400.3125 C-183.07138335 396.11935538 -190.32005606 391.90898414 -197.5625 387.6875 C-198.55032471 387.11233643 -199.53814941 386.53717285 -200.5559082 385.94458008 C-201.50812256 385.38923584 -202.46033691 384.8338916 -203.44140625 384.26171875 C-204.27357666 383.77662842 -205.10574707 383.29153809 -205.96313477 382.79174805 C-206.96530029 382.20047119 -207.96746582 381.60919434 -209 381 C-209.80391768 380.62740193 -210.60783537 380.25480386 -211.43611419 379.87091494 C-218.4131303 376.35222797 -218.4131303 376.35222797 -219.95056653 372.80976486 C-220.33478442 370.10267147 -220.40062873 367.54009645 -220.36404419 364.80578613 C-220.38952202 363.78148231 -220.41499985 362.75717849 -220.44124973 361.70183516 C-220.5139186 358.26960522 -220.51509247 354.84114736 -220.51611328 351.40820312 C-220.55258603 348.94724472 -220.59310183 346.4863434 -220.63735962 344.0255127 C-220.74285998 337.33889146 -220.78275395 330.65379454 -220.80429697 323.96654701 C-220.81833351 319.78625092 -220.8490098 315.60618309 -220.88329697 311.42601013 C-220.97630241 299.83820982 -221.05412959 288.25062651 -221.06480598 276.66242218 C-221.06549227 275.92131674 -221.06617856 275.1802113 -221.06688564 274.41664812 C-221.0682002 272.91441315 -221.06949835 271.41217816 -221.07078017 269.90994316 C-221.0714315 269.16429083 -221.07208284 268.41863849 -221.07275391 267.65039062 C-221.07339434 266.90382106 -221.07403478 266.15725149 -221.07469462 265.3880586 C-221.08803513 253.30363176 -221.21512629 241.22338278 -221.39302219 229.14036328 C-221.5744652 216.71651368 -221.66534583 204.29472596 -221.66482723 191.86952162 C-221.66649737 184.89971185 -221.7054264 177.93477279 -221.84317398 170.96620178 C-221.97225549 164.40421931 -221.97609635 157.85024148 -221.89751816 151.28691101 C-221.88819415 148.88664682 -221.91947123 146.48580841 -221.99551392 144.08673096 C-222.43328782 129.36170417 -222.43328782 129.36170417 -219 123 C-213.12773582 117.15826986 -205.65287122 113.803791 -198.17041469 110.48054123 C-192.94415021 108.03994566 -188.05616092 105.04401037 -183.125 102.0625 C-173.5097552 96.44827672 -163.86766069 90.88143 -154.21923828 85.32446289 C-147.64163257 81.53311474 -141.08448483 77.71018726 -134.54907227 73.84667969 C-128.05944675 70.01807545 -121.52954121 66.26001084 -115 62.5 C-105.80841756 57.20563805 -96.64358389 51.87053198 -87.50878906 46.47900391 C-71.55206786 37.07205402 -55.57858888 27.69253225 -39.50317383 18.48950195 C-34.0469418 15.36112751 -28.6287777 12.1844695 -23.25390625 8.91796875 C-22.16182861 8.26078857 -21.06975098 7.6036084 -19.94458008 6.92651367 C-17.86698687 5.67360668 -15.79728105 4.40749389 -13.73706055 3.1262207 C-12.80804932 2.56894287 -11.87903809 2.01166504 -10.921875 1.4375 C-9.70902832 0.69306641 -9.70902832 0.69306641 -8.47167969 -0.06640625 C-5.21131044 -1.29790092 -3.33912904 -0.90923875 0 0 Z M-7.50097656 7.89941406 C-8.37206055 8.43276367 -9.24314453 8.96611328 -10.140625 9.515625 C-11.11950684 10.10206787 -12.09838867 10.68851074 -13.10693359 11.29272461 C-14.14414551 11.93862549 -15.18135742 12.58452637 -16.25 13.25 C-17.32975098 13.90170166 -18.40950195 14.55340332 -19.52197266 15.22485352 C-21.69699182 16.53817945 -23.86780418 17.85849964 -26.03417969 19.18603516 C-29.78833786 21.48216581 -33.57651371 23.71581608 -37.375 25.9375 C-38.02500977 26.32067383 -38.67501953 26.70384766 -39.34472656 27.09863281 C-47.00451412 31.61146057 -54.71701372 36.03327867 -62.42089844 40.47021484 C-69.16816602 44.35878721 -75.8989522 48.27266929 -82.60522461 52.23144531 C-88.5795169 55.75735168 -94.56946499 59.2560558 -100.5625 62.75 C-101.57973145 63.34304932 -102.59696289 63.93609863 -103.64501953 64.54711914 C-105.72570293 65.76000691 -107.80643245 66.97281555 -109.88720703 68.18554688 C-113.93031266 70.54228107 -117.97265369 72.90032449 -122.01489258 75.25854492 C-124.01075261 76.42289183 -126.00668402 77.58711639 -128.00268555 78.7512207 C-132.97947623 81.6538432 -137.95543809 84.55786812 -142.9296875 87.46484375 C-144.91139234 88.62250881 -146.89316336 89.78006059 -148.875 90.9375 C-149.86056885 91.51314697 -150.8461377 92.08879395 -151.86157227 92.68188477 C-157.03522743 95.69995521 -162.21648789 98.70398681 -167.41015625 101.6875 C-168.50021973 102.31406494 -169.5902832 102.94062988 -170.71337891 103.58618164 C-172.73393748 104.74640394 -174.75557977 105.90474319 -176.77880859 107.06030273 C-178.79928305 108.22040386 -180.78687377 109.43908447 -182.74349976 110.7039032 C-186.08034182 112.69751371 -189.34198014 113.72510658 -193.06964111 114.79891968 C-200.71085239 117.46569274 -207.80019769 120.8084956 -212 128 C-217.48136962 143.2840635 -215.43961466 162.0502524 -215.19347978 177.99257064 C-215.14441275 181.99012342 -215.13634475 185.98623644 -215.15070152 189.98394203 C-215.15308873 190.65008243 -215.15547595 191.31622283 -215.1579355 192.00254929 C-215.16306775 193.35629206 -215.16834458 194.71003429 -215.17376431 196.06377593 C-215.21647662 207.99954776 -215.13364214 219.93119857 -214.98461914 231.8659668 C-214.84034459 243.42078503 -214.80506171 254.96967407 -214.88208008 266.52514648 C-214.96606341 279.14268115 -214.98590587 291.75740864 -214.89852828 304.37501794 C-214.88930738 305.72251339 -214.88013374 307.07000917 -214.87100792 308.41750526 C-214.86644747 309.08030659 -214.86188702 309.74310791 -214.85718838 310.42599412 C-214.82926987 315.07526363 -214.84638603 319.72310253 -214.87873268 324.37230492 C-214.91718111 330.64083483 -214.85607885 336.9008766 -214.71948814 343.16795921 C-214.68519228 345.46056912 -214.68445413 347.75397635 -214.7205658 350.04655838 C-215.18758657 361.92443477 -215.18758657 361.92443477 -210.02498984 372.08415818 C-205.21172095 375.83410287 -199.97146344 378.48008846 -194.40111959 380.9195534 C-191.08813586 382.41031713 -188.06264781 384.21963489 -184.95703125 386.1015625 C-182.90979868 387.27768727 -180.86163444 388.45219194 -178.8125 389.625 C-171.68910043 393.71804894 -164.57147148 397.81779524 -157.5 402 C-149.3912851 406.79270379 -141.22872875 411.4907408 -133.06640625 416.19140625 C-124.70863394 421.00725889 -116.37266281 425.85932501 -108.04516602 430.72729492 C-100.67137967 435.03416709 -93.27635547 439.30321395 -85.875 443.5625 C-76.8246891 448.7724912 -67.81342643 454.04347104 -58.83105469 459.36962891 C-52.3619013 463.20324496 -45.86834314 466.99182034 -39.35327148 470.74682617 C-34.77564942 473.38674385 -30.21101771 476.0473675 -25.65625 478.7265625 C-24.03082275 479.68091187 -24.03082275 479.68091187 -22.37255859 480.65454102 C-20.24884424 481.90223517 -18.12670478 483.15261486 -16.00634766 484.40600586 C-15.03745605 484.97456299 -14.06856445 485.54312012 -13.0703125 486.12890625 C-12.21195801 486.63494385 -11.35360352 487.14098145 -10.46923828 487.66235352 C-7.99139141 489.00466348 -5.69959348 490.18018058 -3 491 C-0.31198166 489.80116255 1.86813165 488.58894127 4.3125 487 C5.8403061 486.05463114 7.36900334 485.11070142 8.8984375 484.16796875 C9.72053711 483.65411621 10.54263672 483.14026367 11.38964844 482.61083984 C16.01896809 479.75410106 20.73252307 477.04214015 25.4375 474.3125 C27.48959723 473.11590925 29.54168028 471.91929418 31.59375 470.72265625 C38.19780062 466.88013296 44.81678833 463.06372287 51.4375 459.25 C59.18083187 454.78946922 66.91145935 450.31016406 74.60693359 445.76757812 C80.58061943 442.241935 86.57003194 438.74361366 92.5625 435.25 C93.57973145 434.65695068 94.59696289 434.06390137 95.64501953 433.45288086 C97.72570293 432.23999309 99.80643245 431.02718445 101.88720703 429.81445312 C105.93031266 427.45771893 109.97265369 425.09967551 114.01489258 422.74145508 C116.01075261 421.57710817 118.00668402 420.41288361 120.00268555 419.2487793 C124.97947623 416.3461568 129.95543809 413.44213188 134.9296875 410.53515625 C136.91139234 409.37749119 138.89316336 408.21993941 140.875 407.0625 C141.86056885 406.48685303 142.8461377 405.91120605 143.86157227 405.31811523 C149.03522743 402.30004479 154.21648789 399.29601319 159.41015625 396.3125 C160.50021973 395.68593506 161.5902832 395.05937012 162.71337891 394.41381836 C164.73393748 393.25359606 166.75557977 392.09525681 168.77880859 390.93969727 C170.79928305 389.77959614 172.78687377 388.56091553 174.74349976 387.2960968 C178.08034182 385.30248629 181.34198014 384.27489342 185.06964111 383.20108032 C192.71085239 380.53430726 199.80019769 377.1915044 204 370 C209.48136962 354.7159365 207.43961466 335.9497476 207.19347978 320.00742936 C207.14441275 316.00987658 207.13634475 312.01376356 207.15070152 308.01605797 C207.15308873 307.34991757 207.15547595 306.68377717 207.1579355 305.99745071 C207.16306775 304.64370794 207.16834458 303.28996571 207.17376431 301.93622407 C207.21647662 290.00045224 207.13364214 278.06880143 206.98461914 266.1340332 C206.84034459 254.57921497 206.80506171 243.03032593 206.88208008 231.47485352 C206.96606341 218.85731885 206.98590587 206.24259136 206.89852828 193.62498206 C206.88930738 192.27748661 206.88013374 190.92999083 206.87100792 189.58249474 C206.86644747 188.91969341 206.86188702 188.25689209 206.85718838 187.57400588 C206.82926987 182.92473637 206.84638603 178.27689747 206.87873268 173.62769508 C206.91718111 167.35916517 206.85607885 161.0991234 206.71948814 154.83204079 C206.68519228 152.53943088 206.68445413 150.24602365 206.7205658 147.95344162 C207.18758657 136.07556523 207.18758657 136.07556523 202.02498984 125.91584182 C197.21172095 122.16589713 191.97146344 119.51991154 186.40111959 117.0804466 C183.08813586 115.58968287 180.06264781 113.78036511 176.95703125 111.8984375 C174.90979868 110.72231273 172.86163444 109.54780806 170.8125 108.375 C163.68910043 104.28195106 156.57147148 100.18220476 149.5 96 C141.3912851 91.20729621 133.22872875 86.5092592 125.06640625 81.80859375 C116.70863394 76.99274111 108.37266281 72.14067499 100.04516602 67.27270508 C92.67137967 62.96583291 85.27635547 58.69678605 77.875 54.4375 C68.8246891 49.2275088 59.81342643 43.95652896 50.83105469 38.63037109 C44.3619013 34.79675504 37.86834314 31.00817966 31.35327148 27.25317383 C26.77564942 24.61325615 22.21101771 21.9526325 17.65625 19.2734375 C16.57263184 18.63720459 15.48901367 18.00097168 14.37255859 17.34545898 C12.24884424 16.09776483 10.12670478 14.84738514 8.00634766 13.59399414 C7.03745605 13.02543701 6.06856445 12.45687988 5.0703125 11.87109375 C4.21195801 11.36505615 3.35360352 10.85901855 2.46923828 10.33764648 C-2.2817714 7.40587081 -2.2817714 7.40587081 -7.50097656 7.89941406 Z " fill="#9FB43C" transform="translate(254,1)"/>
<path d="M0 0 C6.74832487 1.12472081 6.74832487 1.12472081 9.8984375 3.01171875 C10.61201416 3.43227539 11.32559082 3.85283203 12.06079102 4.28613281 C13.20632446 4.97980957 13.20632446 4.97980957 14.375 5.6875 C16.0793616 6.69672519 17.78379191 7.70583432 19.48828125 8.71484375 C20.38627441 9.25093262 21.28426758 9.78702148 22.20947266 10.33935547 C26.97489845 13.17526328 31.77044357 15.95941507 36.5625 18.75 C38.07094482 19.6303894 38.07094482 19.6303894 39.60986328 20.52856445 C57.65586178 31.05942736 75.77403 41.46450787 93.92675781 51.81005859 C95.04018555 52.44508301 96.15361328 53.08010742 97.30078125 53.734375 C98.28216064 54.29350586 99.26354004 54.85263672 100.2746582 55.42871094 C101.174021 55.94723633 102.07338379 56.46576172 103 57 C104.30321339 57.63196273 104.30321339 57.63196273 105.63275433 58.27669239 C108 60 108 60 108.61523914 62.33693218 C108.61063018 63.26333413 108.60602121 64.18973608 108.60127258 65.14421082 C108.6081459 66.20851822 108.61501923 67.27282562 108.62210083 68.36938477 C108.60412445 69.53679199 108.58614807 70.70419922 108.56762695 71.90698242 C108.56835709 73.13637039 108.56908722 74.36575836 108.56983948 75.63240051 C108.56695031 79.00461485 108.54185886 82.37530332 108.50696969 85.74724746 C108.47573669 89.27060571 108.47277791 92.79398378 108.46684265 96.31745911 C108.45129505 102.98992387 108.41025474 109.66197956 108.3600952 116.3342641 C108.30422979 123.93026189 108.27672238 131.52627911 108.25161803 139.12243116 C108.19933925 154.74852444 108.1113798 170.3742095 108 186 C107.67 186 107.34 186 107 186 C107 145.08 107 104.16 107 62 C90.05402707 71.6834131 73.11657895 81.37638848 56.21777344 91.14111328 C49.74865239 94.8782823 43.27686657 98.61083848 36.80444336 102.34228516 C31.69444968 105.28884717 26.5862014 108.23832608 21.48348999 111.19747925 C19.05448023 112.60588062 16.62456812 114.01272093 14.19458008 115.41943359 C12.46542149 116.42132206 10.7375822 117.42548641 9.00976562 118.4296875 C7.97400391 119.02910156 6.93824219 119.62851562 5.87109375 120.24609375 C4.95255615 120.77904053 4.03401855 121.3119873 3.08764648 121.86108398 C1 123 1 123 0 123 C0 82.41 0 41.82 0 0 Z " fill="#92A616" transform="translate(250,189)"/>
<path d="M0 0 C4.63044572 0.53791475 7.84987789 1.76558392 11.8671875 4.10546875 C12.98754395 4.75201416 14.10790039 5.39855957 15.26220703 6.06469727 C16.46658132 6.77211099 17.67084281 7.47971678 18.875 8.1875 C20.13218264 8.91739043 21.38983941 9.64646475 22.64794922 10.37475586 C25.83716971 12.22383249 29.02006445 14.08349096 32.20092773 15.94689941 C34.8863833 17.51885118 37.57610509 19.08345251 40.265625 20.6484375 C44.18475378 22.93070793 48.10100792 25.21781329 52.015625 27.5078125 C61.52026788 33.06210776 71.06440504 38.54816802 80.60351562 44.04296875 C86.02446492 47.16648295 91.44336866 50.29354116 96.86236572 53.42044067 C99.65034759 55.02913682 102.43846015 56.63760642 105.2265625 58.24609375 C106.81770833 59.1640625 108.40885417 60.08203125 110 61 C110 61.66 110 62.32 110 63 C109.33170166 63.3717334 108.66340332 63.7434668 107.97485352 64.12646484 C95.32771305 71.1677226 82.72749153 78.26421004 70.27929688 85.65136719 C55.47526421 94.41073699 40.57057261 102.99555739 25.6159668 111.49462891 C19.65617865 114.88722368 13.74502174 118.32884942 7.92138672 121.95117188 C6 123 6 123 4 123 C3.505 123.99 3.505 123.99 3 125 C2 124 2 124 1.87695217 121.95601559 C1.87787396 121.04989308 1.87879576 120.14377058 1.87974548 119.21018982 C1.87837082 118.17387421 1.87699615 117.13755859 1.87557983 116.06983948 C1.87917511 114.92329391 1.88277039 113.77674835 1.88647461 112.59545898 C1.88632858 111.39562378 1.88618256 110.19578857 1.8860321 108.95959473 C1.88661106 105.66014809 1.89164022 102.36076336 1.89860606 99.0613277 C1.90484027 95.61665703 1.90544345 92.17198562 1.90663147 88.72731018 C1.90974459 82.2001727 1.91795771 75.67305189 1.92798096 69.14592177 C1.9391427 61.71677984 1.9446527 54.28763714 1.94967639 46.85848892 C1.96014034 31.57231628 1.9777394 16.28616028 2 1 C1.34 0.67 0.68 0.34 0 0 Z " fill="#FEC61C" transform="translate(248,64)"/>
<path d="M0 0 C0.99 0.495 0.99 0.495 2 1 C1.67 41.59 1.34 82.18 1 124 C0.01 124.495 0.01 124.495 -1 125 C-1 124.34 -1 123.68 -1 123 C-2.02673828 122.62101562 -2.02673828 122.62101562 -3.07421875 122.234375 C-6.46413223 120.80418453 -9.62201454 119.06939814 -12.8125 117.25 C-13.49626709 116.86295898 -14.18003418 116.47591797 -14.88452148 116.07714844 C-22.18109261 111.92964065 -29.41696328 107.67751649 -36.65942383 103.43652344 C-43.57221144 99.39565001 -50.52031377 95.42404662 -57.5 91.5 C-68.44823672 85.34291571 -79.31443283 79.04894249 -90.13427734 72.66894531 C-92.19081728 71.47125346 -94.26053308 70.29607791 -96.33837891 69.13574219 C-97.42940918 68.52118164 -98.52043945 67.90662109 -99.64453125 67.2734375 C-101.14463745 66.44078369 -101.14463745 66.44078369 -102.67504883 65.59130859 C-105 64 -105 64 -106 61 C-104.37566843 60.08631349 -102.75132847 59.17264189 -101.12695312 58.2590332 C-99.68280422 57.44661656 -98.2387987 56.63394502 -96.79492188 55.82104492 C-93.27271679 53.838475 -89.74930576 51.85829143 -86.21875 49.890625 C-77.31238119 44.91880609 -68.49587942 39.80203876 -59.69384766 34.64794922 C-51.19858526 29.68081726 -42.65988357 24.79226587 -34.10369873 19.93115234 C-27.83448599 16.3687197 -21.58840112 12.77476643 -15.40625 9.0625 C-14.38547363 8.45027588 -13.36469727 7.83805176 -12.31298828 7.20727539 C-10.39552442 6.05224003 -8.48221718 4.89026786 -6.57373047 3.72045898 C-5.73213379 3.21329346 -4.89053711 2.70612793 -4.0234375 2.18359375 C-3.29044434 1.73556396 -2.55745117 1.28753418 -1.80224609 0.82592773 C-1.20750488 0.55337158 -0.61276367 0.28081543 0 0 Z " fill="#C8B20B" transform="translate(249,188)"/>
<path d="M0 0 C4.28456404 1.42818801 7.1910008 2.51298523 10.921875 4.73046875 C11.85169189 5.27856201 12.78150879 5.82665527 13.73950195 6.39135742 C14.73296631 6.98408447 15.72643066 7.57681152 16.75 8.1875 C18.90455001 9.45900781 21.05951245 10.72981699 23.21484375 12 C24.32972168 12.65871094 25.44459961 13.31742187 26.59326172 13.99609375 C32.14580342 17.26220112 37.72909841 20.47452718 43.3125 23.6875 C45.50658478 24.95169387 47.70059667 26.21601424 49.89453125 27.48046875 C50.93561035 28.08036621 51.97668945 28.68026367 53.04931641 29.29833984 C57.93978694 32.11867574 62.8242626 34.94933224 67.70874023 37.7800293 C72.39391094 40.49408932 77.08252956 43.20211934 81.7734375 45.90625 C82.36042419 46.24466919 82.94741089 46.58308838 83.55218506 46.9317627 C86.46218275 48.60939984 89.37247907 50.28651373 92.28320312 51.96289062 C93.34216797 52.57326172 94.40113281 53.18363281 95.4921875 53.8125 C96.43433105 54.35519531 97.37647461 54.89789063 98.34716797 55.45703125 C100.9121216 56.94888722 103.45944285 58.46703414 106 60 C105.8269043 61.79907227 105.8269043 61.79907227 105 64 C102.75708008 65.62475586 102.75708008 65.62475586 99.76953125 67.21484375 C98.66810791 67.81159912 97.56668457 68.40835449 96.43188477 69.02319336 C95.54788498 69.49062454 95.54788498 69.49062454 94.64602661 69.96749878 C91.52562202 71.61830452 88.42892605 73.31275184 85.328125 75 C84.70079971 75.33970322 84.07347443 75.67940643 83.42713928 76.02940369 C77.89246849 79.03375389 72.46463377 82.20099724 67.0625 85.4375 C58.21871676 90.71649297 49.30090584 95.85761205 40.34768677 100.94799805 C33.88260323 104.62380923 27.43060757 108.31767915 21.0234375 112.09375 C19.92370605 112.74093994 18.82397461 113.38812988 17.69091797 114.05493164 C15.6118465 115.28153609 13.53521714 116.51229229 11.46142578 117.74780273 C10.53571777 118.29380127 9.61000977 118.8397998 8.65625 119.40234375 C7.84994141 119.88179443 7.04363281 120.36124512 6.21289062 120.85522461 C4 122 4 122 0 123 C0 82.41 0 41.82 0 0 Z " fill="#248C24" transform="translate(250,313)"/>
<path d="M0 0 C0 40.92 0 81.84 0 124 C-0.33 123.34 -0.66 122.68 -1 122 C-2.65179347 121.29729057 -4.32137585 120.63595849 -6 120 C-7.57373278 119.1794454 -9.13201455 118.32875569 -10.67578125 117.453125 C-11.57337158 116.94539551 -12.47096191 116.43766602 -13.39575195 115.91455078 C-14.35827881 115.36524902 -15.32080566 114.81594727 -16.3125 114.25 C-17.32723389 113.67362793 -18.34196777 113.09725586 -19.38745117 112.50341797 C-28.5780878 107.26959599 -37.71188214 101.93975958 -46.83984375 96.59765625 C-53.17087005 92.89487015 -59.5206558 89.22509326 -65.875 85.5625 C-66.93831543 84.94947021 -68.00163086 84.33644043 -69.09716797 83.70483398 C-74.22175972 80.75130666 -79.34753597 77.79984122 -84.47399902 74.8495636 C-86.88217475 73.46340262 -89.28990699 72.07647251 -91.6975708 70.68942261 C-93.40258234 69.70760702 -95.1082667 68.72696016 -96.81396484 67.74633789 C-98.35818115 66.85676392 -98.35818115 66.85676392 -99.93359375 65.94921875 C-100.84165771 65.42674561 -101.74972168 64.90427246 -102.68530273 64.3659668 C-104.49126201 63.30022034 -106.25521129 62.16319248 -108 61 C-107.36835938 60.64921387 -106.73671875 60.29842773 -106.0859375 59.93701172 C-92.33297865 52.29014861 -78.66630949 44.51909961 -65.08984375 36.5625 C-58.7842955 32.86786672 -52.45703499 29.21150953 -46.125 25.5625 C-45.06007324 24.94866455 -43.99514648 24.3348291 -42.89794922 23.70239258 C-39.59885592 21.80120755 -36.29943126 19.90059844 -33 18 C-28.8036869 15.58216338 -24.60779716 13.16359338 -20.41229248 10.74435425 C-18.72901778 9.77393527 -17.04542113 8.80407481 -15.36181641 7.83422852 C-14.33878418 7.24440186 -13.31575195 6.6545752 -12.26171875 6.046875 C-11.36412842 5.52963867 -10.46653809 5.01240234 -9.54174805 4.47949219 C-7.7760795 3.45173775 -6.02845695 2.39259918 -4.29614258 1.30957031 C-2 0 -2 0 0 0 Z " fill="#59981A" transform="translate(357,251)"/>
<path d="M0 0 C4.24812128 1.69924851 8.22789727 3.59872528 12.25 5.75 C12.92184326 6.10852051 13.59368652 6.46704102 14.28588867 6.83642578 C17.74406425 8.70555194 21.08215609 10.62724579 24.3125 12.875 C28.41186155 15.71418745 32.69520212 18.10539803 37.0625 20.5 C44.37982908 24.51372481 51.61223132 28.65488901 58.8125 32.875 C69.05669412 38.87625385 79.34440114 44.79598995 89.66259766 50.66894531 C93.21491914 52.69184658 96.76369977 54.72092995 100.3125 56.75 C101.42238281 57.38421875 102.53226562 58.0184375 103.67578125 58.671875 C104.44277344 59.11015625 105.20976562 59.5484375 106 60 C106 60.66 106 61.32 106 62 C105.33806641 62.3810791 104.67613281 62.7621582 103.99414062 63.15478516 C91.00042259 70.63757495 78.02050694 78.14229508 65.07568359 85.70947266 C59.74886869 88.82081082 54.41519125 91.91979384 49.0703125 95 C48.48916687 95.33491455 47.90802124 95.6698291 47.30926514 96.01489258 C44.50788817 97.62873886 41.70559212 99.24096889 38.90234375 100.8515625 C33.28559584 104.08350616 27.7064551 107.36745366 22.15722656 110.71386719 C19.57718289 112.25208245 16.95985361 113.7060509 14.3125 115.125 C11.15419664 116.82493665 8.02760845 118.5542722 4.9375 120.375 C2 122 2 122 0 122 C0 81.74 0 41.48 0 0 Z " fill="#E3B905" transform="translate(143,127)"/>
<path d="M0 0 C0.66 0 1.32 0 2 0 C1.67 0.99 1.34 1.98 1 3 C0.89776898 4.82653021 0.85367154 6.65653535 0.84178162 8.48588562 C0.8319928 9.62592041 0.82220398 10.7659552 0.81211853 11.9405365 C0.80636307 13.19210037 0.8006076 14.44366425 0.79467773 15.7331543 C0.78477814 17.0503244 0.77487854 18.36749451 0.76467896 19.72457886 C0.73763272 23.3379029 0.71662164 26.95124 0.69667697 30.56460929 C0.67481569 34.34028235 0.64742769 38.11591518 0.62062073 41.89155579 C0.57069577 49.04191766 0.52575621 56.19230188 0.48259836 63.34270746 C0.43322431 71.48291469 0.3783068 79.62308156 0.32291877 87.76324975 C0.20910174 104.50879596 0.10226209 121.25437916 0 138 C-0.33 138 -0.66 138 -1 138 C-1.02332826 120.1546915 -1.04097882 102.30938694 -1.05181217 84.46406651 C-1.05697528 76.17875726 -1.06401827 67.89345747 -1.07543945 59.6081543 C-1.08538583 52.38930392 -1.09185332 45.17046039 -1.09408849 37.95160335 C-1.09539568 34.12691745 -1.09848203 30.30225113 -1.10573006 26.47757149 C-1.11248954 22.88174213 -1.11461711 19.28594054 -1.11310768 15.69010544 C-1.11351636 13.73293963 -1.11891193 11.77577688 -1.12442017 9.81861877 C-1.1230455 8.664505 -1.12167084 7.51039124 -1.12025452 6.32130432 C-1.12117631 5.311941 -1.1220981 4.30257769 -1.12304783 3.2626276 C-1 1 -1 1 0 0 Z " fill="#B8C154" transform="translate(36,123)"/>
<path d="M0 0 C0.66 0 1.32 0 2 0 C1.67 0.99 1.34 1.98 1 3 C0.84629652 5.72883073 0.74271735 8.43697142 0.68359375 11.16796875 C0.66281265 11.96278152 0.64203156 12.7575943 0.62062073 13.57649231 C0.55527913 16.11340763 0.49631192 18.65042573 0.4375 21.1875 C0.39430014 22.90821372 0.35068537 24.62891708 0.30664062 26.34960938 C0.19961352 30.56630113 0.09830276 34.7830962 0 39 C-0.33 39 -0.66 39 -1 39 C-1.02464849 33.60653012 -1.04283531 28.21309275 -1.05493164 22.81958008 C-1.05997231 20.98331125 -1.06680477 19.14704646 -1.07543945 17.31079102 C-1.08751672 14.67723599 -1.09323081 12.04373384 -1.09765625 9.41015625 C-1.10281754 8.58411392 -1.10797882 7.75807159 -1.11329651 6.90699768 C-1.11349205 4.93763632 -1.06204152 2.96838386 -1 1 C-0.67 0.67 -0.34 0.34 0 0 Z " fill="#D1C959" transform="translate(36,123)"/>
</svg>