<svg width="582" height="693" viewBox="0 0 582 693" fill="none" xmlns="http://www.w3.org/2000/svg">
<circle cx="290.5" cy="170.5" r="170.5" fill="white"/>
<circle cx="411.5" cy="378.5" r="170.5" fill="white"/>
<circle cx="170.5" cy="378.5" r="170.5" fill="white"/>
<circle opacity="0.7" cx="290.5" cy="170.5" r="170.5" fill="#235EFE"/>
<circle opacity="0.8" cx="170.5" cy="378.5" r="170.5" fill="#FFC822"/>
<circle opacity="0.8" cx="411.5" cy="378.5" r="170.5" fill="#FD6724"/>
<path d="M115.234 654.281C115.234 652.969 115.031 651.797 114.625 650.766C114.25 649.703 113.547 648.75 112.516 647.906C111.516 647.031 110.094 646.188 108.25 645.375C106.438 644.531 104.094 643.656 101.219 642.75C98.0312 641.75 95.0625 640.625 92.3125 639.375C89.5625 638.125 87.1406 636.672 85.0469 635.016C82.9844 633.359 81.375 631.453 80.2188 629.297C79.0625 627.109 78.4844 624.578 78.4844 621.703C78.4844 618.891 79.0781 616.328 80.2656 614.016C81.4844 611.703 83.2031 609.719 85.4219 608.062C87.6406 606.375 90.25 605.078 93.25 604.172C96.2812 603.266 99.625 602.812 103.281 602.812C108.344 602.812 112.719 603.734 116.406 605.578C120.125 607.422 123 609.922 125.031 613.078C127.062 616.234 128.078 619.781 128.078 623.719H115.234C115.234 621.594 114.781 619.719 113.875 618.094C113 616.469 111.656 615.188 109.844 614.25C108.062 613.312 105.812 612.844 103.094 612.844C100.469 612.844 98.2812 613.234 96.5312 614.016C94.8125 614.797 93.5156 615.859 92.6406 617.203C91.7969 618.547 91.375 620.047 91.375 621.703C91.375 622.953 91.6719 624.078 92.2656 625.078C92.8594 626.047 93.75 626.969 94.9375 627.844C96.125 628.688 97.5938 629.484 99.3438 630.234C101.125 630.953 103.188 631.672 105.531 632.391C109.281 633.516 112.562 634.766 115.375 636.141C118.219 637.516 120.578 639.078 122.453 640.828C124.359 642.578 125.781 644.547 126.719 646.734C127.688 648.922 128.172 651.406 128.172 654.188C128.172 657.125 127.594 659.75 126.438 662.062C125.281 664.375 123.625 666.344 121.469 667.969C119.312 669.594 116.719 670.828 113.688 671.672C110.688 672.516 107.328 672.938 103.609 672.938C100.297 672.938 97.0156 672.5 93.7656 671.625C90.5469 670.719 87.625 669.375 85 667.594C82.375 665.781 80.2812 663.5 78.7188 660.75C77.1562 657.969 76.375 654.719 76.375 651H89.3125C89.3125 653.156 89.6562 655 90.3438 656.531C91.0625 658.031 92.0625 659.266 93.3438 660.234C94.6562 661.172 96.1875 661.859 97.9375 662.297C99.6875 662.734 101.578 662.953 103.609 662.953C106.234 662.953 108.391 662.594 110.078 661.875C111.797 661.125 113.078 660.094 113.922 658.781C114.797 657.469 115.234 655.969 115.234 654.281ZM161.172 621.281V630.188H132.109V621.281H161.172ZM139.891 608.812H152.312V657.375C152.312 658.875 152.516 660.031 152.922 660.844C153.328 661.656 153.938 662.203 154.75 662.484C155.562 662.766 156.531 662.906 157.656 662.906C158.469 662.906 159.219 662.859 159.906 662.766C160.594 662.672 161.172 662.578 161.641 662.484L161.688 671.766C160.656 672.109 159.484 672.391 158.172 672.609C156.891 672.828 155.438 672.938 153.812 672.938C151.031 672.938 148.594 672.469 146.5 671.531C144.406 670.562 142.781 669.016 141.625 666.891C140.469 664.734 139.891 661.891 139.891 658.359V608.812ZM197.359 661.219V637.828C197.359 636.109 197.062 634.625 196.469 633.375C195.875 632.125 194.969 631.156 193.75 630.469C192.531 629.781 190.984 629.438 189.109 629.438C187.453 629.438 186 629.719 184.75 630.281C183.531 630.844 182.594 631.641 181.938 632.672C181.281 633.672 180.953 634.828 180.953 636.141H168.531C168.531 634.047 169.031 632.062 170.031 630.188C171.031 628.281 172.453 626.594 174.297 625.125C176.172 623.625 178.406 622.453 181 621.609C183.625 620.766 186.562 620.344 189.812 620.344C193.656 620.344 197.078 621 200.078 622.312C203.109 623.594 205.484 625.531 207.203 628.125C208.953 630.719 209.828 633.984 209.828 637.922V660.047C209.828 662.578 209.984 664.75 210.297 666.562C210.641 668.344 211.141 669.891 211.797 671.203V672H199.188C198.594 670.719 198.141 669.094 197.828 667.125C197.516 665.125 197.359 663.156 197.359 661.219ZM199.094 641.109L199.188 648.469H191.359C189.422 648.469 187.719 648.672 186.25 649.078C184.781 649.453 183.578 650.016 182.641 650.766C181.703 651.484 181 652.359 180.531 653.391C180.062 654.391 179.828 655.531 179.828 656.812C179.828 658.062 180.109 659.188 180.672 660.188C181.266 661.188 182.109 661.984 183.203 662.578C184.328 663.141 185.641 663.422 187.141 663.422C189.328 663.422 191.234 662.984 192.859 662.109C194.484 661.203 195.75 660.109 196.656 658.828C197.562 657.547 198.047 656.328 198.109 655.172L201.672 660.516C201.234 661.797 200.578 663.156 199.703 664.594C198.828 666.031 197.703 667.375 196.328 668.625C194.953 669.875 193.297 670.906 191.359 671.719C189.422 672.531 187.172 672.938 184.609 672.938C181.328 672.938 178.391 672.281 175.797 670.969C173.203 669.656 171.156 667.859 169.656 665.578C168.156 663.297 167.406 660.703 167.406 657.797C167.406 655.109 167.906 652.734 168.906 650.672C169.906 648.609 171.391 646.875 173.359 645.469C175.328 644.031 177.766 642.953 180.672 642.234C183.609 641.484 186.969 641.109 190.75 641.109H199.094ZM220.938 600H233.359V660.797L232.141 672H220.938V600ZM265.984 646.125V647.109C265.984 650.891 265.562 654.359 264.719 657.516C263.906 660.672 262.672 663.406 261.016 665.719C259.359 668 257.297 669.781 254.828 671.062C252.391 672.312 249.531 672.938 246.25 672.938C243.125 672.938 240.406 672.328 238.094 671.109C235.812 669.891 233.891 668.172 232.328 665.953C230.766 663.703 229.516 661.062 228.578 658.031C227.641 654.969 226.938 651.625 226.469 648V645.328C226.938 641.672 227.641 638.328 228.578 635.297C229.516 632.266 230.766 629.625 232.328 627.375C233.891 625.125 235.812 623.391 238.094 622.172C240.375 620.953 243.062 620.344 246.156 620.344C249.469 620.344 252.359 620.984 254.828 622.266C257.328 623.516 259.391 625.297 261.016 627.609C262.672 629.891 263.906 632.609 264.719 635.766C265.562 638.891 265.984 642.344 265.984 646.125ZM253.562 647.109V646.125C253.562 643.969 253.391 641.938 253.047 640.031C252.703 638.094 252.141 636.391 251.359 634.922C250.578 633.453 249.516 632.297 248.172 631.453C246.828 630.609 245.141 630.188 243.109 630.188C241.172 630.188 239.516 630.516 238.141 631.172C236.797 631.828 235.672 632.734 234.766 633.891C233.891 635.047 233.203 636.406 232.703 637.969C232.234 639.531 231.922 641.219 231.766 643.031V650.344C231.984 652.75 232.5 654.922 233.312 656.859C234.125 658.766 235.328 660.281 236.922 661.406C238.547 662.531 240.641 663.094 243.203 663.094C245.203 663.094 246.875 662.703 248.219 661.922C249.562 661.109 250.625 659.984 251.406 658.547C252.188 657.078 252.734 655.375 253.047 653.438C253.391 651.5 253.562 649.391 253.562 647.109ZM288.109 600V672H275.688V600H288.109ZM322.703 672.938C318.859 672.938 315.406 672.312 312.344 671.062C309.281 669.812 306.672 668.078 304.516 665.859C302.391 663.609 300.75 661 299.594 658.031C298.469 655.031 297.906 651.812 297.906 648.375V646.5C297.906 642.594 298.469 639.047 299.594 635.859C300.719 632.641 302.312 629.875 304.375 627.562C306.438 625.25 308.906 623.469 311.781 622.219C314.656 620.969 317.828 620.344 321.297 620.344C324.891 620.344 328.062 620.953 330.812 622.172C333.562 623.359 335.859 625.047 337.703 627.234C339.547 629.422 340.938 632.047 341.875 635.109C342.812 638.141 343.281 641.5 343.281 645.188V650.391H303.531V641.859H331.094V640.922C331.031 638.953 330.656 637.156 329.969 635.531C329.281 633.875 328.219 632.562 326.781 631.594C325.344 630.594 323.484 630.094 321.203 630.094C319.359 630.094 317.75 630.5 316.375 631.312C315.031 632.094 313.906 633.219 313 634.688C312.125 636.125 311.469 637.844 311.031 639.844C310.594 641.844 310.375 644.062 310.375 646.5V648.375C310.375 650.5 310.656 652.469 311.219 654.281C311.812 656.094 312.672 657.672 313.797 659.016C314.953 660.328 316.328 661.359 317.922 662.109C319.547 662.828 321.391 663.188 323.453 663.188C326.047 663.188 328.391 662.688 330.484 661.688C332.609 660.656 334.453 659.141 336.016 657.141L342.25 663.609C341.188 665.172 339.75 666.672 337.938 668.109C336.156 669.547 334 670.719 331.469 671.625C328.938 672.5 326.016 672.938 322.703 672.938ZM378.766 647.109H361.188V636.984H378.766C381.641 636.984 383.969 636.516 385.75 635.578C387.562 634.609 388.891 633.297 389.734 631.641C390.578 629.953 391 628.031 391 625.875C391 623.781 390.578 621.828 389.734 620.016C388.891 618.203 387.562 616.734 385.75 615.609C383.969 614.484 381.641 613.922 378.766 613.922H365.406V672H352.516V603.75H378.766C384.078 603.75 388.609 604.703 392.359 606.609C396.141 608.484 399.016 611.094 400.984 614.438C402.984 617.75 403.984 621.531 403.984 625.781C403.984 630.188 402.984 633.984 400.984 637.172C399.016 640.359 396.141 642.812 392.359 644.531C388.609 646.25 384.078 647.109 378.766 647.109ZM440.547 661.219V637.828C440.547 636.109 440.25 634.625 439.656 633.375C439.062 632.125 438.156 631.156 436.938 630.469C435.719 629.781 434.172 629.438 432.297 629.438C430.641 629.438 429.188 629.719 427.938 630.281C426.719 630.844 425.781 631.641 425.125 632.672C424.469 633.672 424.141 634.828 424.141 636.141H411.719C411.719 634.047 412.219 632.062 413.219 630.188C414.219 628.281 415.641 626.594 417.484 625.125C419.359 623.625 421.594 622.453 424.188 621.609C426.812 620.766 429.75 620.344 433 620.344C436.844 620.344 440.266 621 443.266 622.312C446.297 623.594 448.672 625.531 450.391 628.125C452.141 630.719 453.016 633.984 453.016 637.922V660.047C453.016 662.578 453.172 664.75 453.484 666.562C453.828 668.344 454.328 669.891 454.984 671.203V672H442.375C441.781 670.719 441.328 669.094 441.016 667.125C440.703 665.125 440.547 663.156 440.547 661.219ZM442.281 641.109L442.375 648.469H434.547C432.609 648.469 430.906 648.672 429.438 649.078C427.969 649.453 426.766 650.016 425.828 650.766C424.891 651.484 424.188 652.359 423.719 653.391C423.25 654.391 423.016 655.531 423.016 656.812C423.016 658.062 423.297 659.188 423.859 660.188C424.453 661.188 425.297 661.984 426.391 662.578C427.516 663.141 428.828 663.422 430.328 663.422C432.516 663.422 434.422 662.984 436.047 662.109C437.672 661.203 438.938 660.109 439.844 658.828C440.75 657.547 441.234 656.328 441.297 655.172L444.859 660.516C444.422 661.797 443.766 663.156 442.891 664.594C442.016 666.031 440.891 667.375 439.516 668.625C438.141 669.875 436.484 670.906 434.547 671.719C432.609 672.531 430.359 672.938 427.797 672.938C424.516 672.938 421.578 672.281 418.984 670.969C416.391 669.656 414.344 667.859 412.844 665.578C411.344 663.297 410.594 660.703 410.594 657.797C410.594 655.109 411.094 652.734 412.094 650.672C413.094 648.609 414.578 646.875 416.547 645.469C418.516 644.031 420.953 642.953 423.859 642.234C426.797 641.484 430.156 641.109 433.938 641.109H442.281ZM478.281 666.375L491.875 621.281H505.141L484.797 679.688C484.328 680.938 483.719 682.297 482.969 683.766C482.25 685.234 481.281 686.625 480.062 687.938C478.844 689.281 477.312 690.375 475.469 691.219C473.656 692.062 471.453 692.484 468.859 692.484C467.734 692.484 466.734 692.406 465.859 692.25C464.984 692.094 464.062 691.891 463.094 691.641V682.359C463.406 682.391 463.766 682.406 464.172 682.406C464.609 682.438 464.984 682.453 465.297 682.453C467.109 682.453 468.609 682.234 469.797 681.797C470.984 681.391 471.938 680.719 472.656 679.781C473.406 678.875 474.031 677.688 474.531 676.219L478.281 666.375ZM471.578 621.281L483.062 658.641L485.078 671.719L476.547 673.266L458.219 621.281H471.578Z" fill="white"/>
</svg>
